<?xml version="1.0" encoding="utf-8"?>
<!-- Generator: Adobe Illustrator 27.2.0, SVG Export Plug-In . SVG Version: 6.00 Build 0)  -->
<svg version="1.1" id="Слой_1" xmlns="http://www.w3.org/2000/svg" xmlns:xlink="http://www.w3.org/1999/xlink" x="0px" y="0px"
	 viewBox="0 0 1200 296.1" style="enable-background:new 0 0 1200 296.1;" xml:space="preserve">
<style type="text/css">
	.st0{fill:#FCBE36;}
	.st1{fill:#101324;}
	.st2{fill:#28334E;}
	.st3{fill:#FBBD36;}
</style>
<g>
	<g>
		<g>
			<path class="st1" d="M634.3,174.3l17.5,10.9c-4.9,9.6-15,19.5-32.1,19.5c-28,0-42.2-22.6-42.2-50.3c0-27.7,15.7-50.3,42.2-50.3
				c17.1,0,27.2,10,32.1,19.5l-17.5,10.9c-2.9-5.7-8.1-10.8-14.8-10.8c-12.4,0-20.2,13.7-20.2,30.6c0,16.9,7.8,30.6,20.2,30.6
				C626.2,185.1,631.4,180,634.3,174.3z"/>
			<path class="st1" d="M723.3,166l19.7,36.6h-24.1l-16.7-33.9H697v33.9h-21.9v-96.2h30.3c26,0,37.5,13.4,37.5,30.6
				C742.9,149.7,736,161,723.3,166z M697,149h8.3c9.4,0,15.7-3.8,15.7-11.5c0-8.6-6.3-11.5-15.7-11.5H697V149z"/>
			<path class="st1" d="M793.6,126v18.6h30.6v19.7h-30.6v18.6H833v19.7h-61.2v-96.2H833V126H793.6z"/>
			<path class="st1" d="M908.6,185.1H884l-4.6,17.5h-23.5l30.6-96.2h19.7l30.6,96.2h-23.5L908.6,185.1z M903.5,165.4l-7.2-27.3
				l-7.2,27.3H903.5z"/>
			<path class="st1" d="M1014.3,106.4V126h-21.9v76.5h-21.9V126h-21.9v-19.7H1014.3z"/>
			<path class="st1" d="M1109.9,154.5c0,27.7-13.3,50.3-38.3,50.3c-25,0-38.3-22.6-38.3-50.3c0-27.7,13.3-50.3,38.3-50.3
				C1096.7,104.2,1109.9,126.7,1109.9,154.5z M1088.1,154.5c0-16.9-5.7-30.6-16.4-30.6c-10.7,0-16.4,13.7-16.4,30.6
				c0,16.9,5.7,30.6,16.4,30.6C1082.3,185.1,1088.1,171.4,1088.1,154.5z"/>
			<path class="st1" d="M1180.3,166l19.7,36.6h-24.1l-16.7-33.9h-5.2v33.9h-21.9v-96.2h30.3c26,0,37.5,13.4,37.5,30.6
				C1200,149.7,1193,161,1180.3,166z M1154.1,149h8.3c9.4,0,15.7-3.8,15.7-11.5c0-8.6-6.3-11.5-15.7-11.5h-8.3V149z"/>
		</g>
		<g>
			<path class="st1" d="M600.6,279l-9.4-18.7h-0.6H584V279h-6.6v-48.5h12.1c12.1,0,17.6,6.1,17.6,14.9c0,6.5-3.5,11.6-9.6,13.7
				l10.7,19.9H600.6z M584,254.2h6.7c4.8,0,9.9-2.5,9.9-8.8c0-7-5.4-8.8-10.3-8.8H584V254.2z"/>
			<path class="st1" d="M634.5,279l-0.6-4.3c-1.9,2.3-5.4,4.8-10.7,4.8c-6.5,0-11.9-4.8-11.9-11c0-9.6,12-12.6,21.8-8.2
				c-0.2-4.2-1.9-7.9-7.5-7.9c-2.7,0-5.7,0.8-7.7,2.1l-2.8-4.8c2-1.5,6.2-3.3,10.7-3.3c8.6,0,14.1,4,14.1,16.9V279H634.5z
				 M617.9,268.8c0,2.4,2.7,4.7,5.9,4.7c4.7,0,9-3.7,9.5-7.6C628.4,263.3,617.9,263.1,617.9,268.8z"/>
			<path class="st1" d="M676.6,272.9v6.1h-27.6v-6.1h10.5v-19.8h-9.4V247h16v25.9H676.6z M656.8,235.4c0-2.8,2.2-5,5-5
				c2.8,0,5,2.2,5,5c0,2.8-2.2,5-5,5C659,240.4,656.8,238.2,656.8,235.4z"/>
			<path class="st1" d="M713.8,273.5c-2,3.3-5.6,6.1-11.2,6.1c-8.7,0-13-6.4-13-15.7v-27.3h-8.8v-6.1h15.4v34.7
				c0,4.7,2.3,8.3,6.5,8.3c2.8,0,4.3-1.5,5.4-3.3L713.8,273.5z"/>
			<path class="st1" d="M746.6,272.9v6.1h-27.6v-6.1h10.5v-19.8h-9.4V247h16v25.9H746.6z M726.8,235.4c0-2.8,2.2-5,5-5
				c2.8,0,5,2.2,5,5c0,2.8-2.2,5-5,5C729,240.4,726.8,238.2,726.8,235.4z"/>
			<path class="st1" d="M780.5,261.6V279h-6.6v-17.4c0-5.9-1.8-9.1-6.9-9.1c-4,0-7.4,3.7-7.4,9.9V279H753v-32h6.6v4.4
				c1.3-2.3,4.1-5,8.7-5C776.1,246.5,780.5,251.8,780.5,261.6z"/>
			<path class="st1" d="M816.6,284.9c0,6.5-6,11.2-15.4,11.2c-10.1,0-15.4-4.8-15.4-11.2c0-4.5,2.2-8,5.2-10
				c-0.9-1.2-2.1-5.7,0.7-9.2c-2-2-3.1-4.7-3.1-7.7c0-6.3,5.1-11.5,12.7-11.5c3,0,5.6,0.8,7.6,2.3l4.4-3.9l3.9,4.3l-4.4,4.1
				c0.7,1.4,1.1,3.1,1.1,4.8c0,6.4-5.6,11.4-12.7,11.4c-1.6,0-3-0.2-4.3-0.6c-1.4,2.3-0.7,5.2,4.9,5.4
				C810,274.5,816.6,276.6,816.6,284.9z M810,285.1c0-3.5-3.2-4.8-7.7-4.9c-2.7-0.1-5.5-0.6-6.8-1.2c-2,1.2-3.1,2.5-3.1,5.1
				c0,3.8,3,5.9,8.8,5.9C807,290,810,287.7,810,285.1z M795.1,257.8c0,3,2.6,5.4,6.1,5.4c3.4,0,6.1-2.5,6.1-5.4
				c0-2.9-2.8-5.3-6.1-5.3C797.9,252.5,795.1,254.9,795.1,257.8z"/>
			<path class="st1" d="M875.1,236.5v36.4h11.6v6.1h-29.8v-6.1h11.6v-36.4h-11.6v-6.1h29.8v6.1H875.1z"/>
			<path class="st1" d="M920.5,261.6V279h-6.6v-17.4c0-5.9-1.8-9.1-6.9-9.1c-4,0-7.4,3.7-7.4,9.9V279H893v-32h6.6v4.4
				c1.3-2.3,4.1-5,8.7-5C916.1,246.5,920.5,251.8,920.5,261.6z"/>
			<path class="st1" d="M955,269.5c0,6-5.3,10.1-12.6,10.1c-8.5,0-12.5-3.9-13.8-5.2l3.3-4.8c1.9,1.9,4.5,3.9,10.1,4
				c5,0.1,6.4-2.2,6.4-3.7c0-1.7-0.8-3.2-5.9-4.1c-9.8-1.6-12.3-5.1-12.3-10.1c0-5,4-9.2,12.1-9.2c4.6,0,8.1,1.4,10.5,3.2l-3.1,4.8
				c-1.7-1-4-1.9-7.4-1.9c-4.1,0-5.5,1.4-5.5,2.9c0,1.7,1.2,3,6.7,3.7C953.3,260.4,955,265.4,955,269.5z"/>
			<path class="st1" d="M975.1,253.1v12.3c0,7.9,6.8,10.2,13,5.9l2.5,5c-1.7,1.4-4.4,3.3-9.6,3.3c-6.2,0-12.4-4.8-12.4-13.1v-13.4
				h-7.7V247h7.7v-13.2l6.6-2.2V247h15.4v6.1H975.1z"/>
			<path class="st1" d="M1019.5,279l-0.6-4.3c-1.9,2.3-5.4,4.8-10.7,4.8c-6.5,0-11.9-4.8-11.9-11c0-9.6,12-12.6,21.8-8.2
				c-0.2-4.2-1.9-7.9-7.5-7.9c-2.7,0-5.7,0.8-7.7,2.1l-2.8-4.8c2-1.5,6.2-3.3,10.7-3.3c8.6,0,14.1,4,14.1,16.9V279H1019.5z
				 M1002.9,268.8c0,2.4,2.7,4.7,5.9,4.7c4.7,0,9-3.7,9.5-7.6C1013.4,263.3,1002.9,263.1,1002.9,268.8z"/>
			<path class="st1" d="M1063.9,273.5c-2,3.3-5.6,6.1-11.2,6.1c-8.7,0-13-6.4-13-15.7v-27.3h-8.8v-6.1h15.4v34.7
				c0,4.7,2.3,8.3,6.5,8.3c2.8,0,4.3-1.5,5.4-3.3L1063.9,273.5z"/>
			<path class="st1" d="M1098.9,273.5c-2,3.3-5.6,6.1-11.2,6.1c-8.7,0-13-6.4-13-15.7v-27.3h-8.8v-6.1h15.4v34.7
				c0,4.7,2.3,8.3,6.5,8.3c2.8,0,4.3-1.5,5.4-3.3L1098.9,273.5z"/>
			<path class="st1" d="M1131.4,265.8h-22.6c1,4.4,4.4,7.7,9.1,7.7c3.7,0,5.4-1.3,6.9-2.9l4.7,3.9c-2.5,3-6.5,5.1-11.6,5.1
				c-9.4,0-16-7.4-16-16.5c0-9.1,5.8-16.5,15.3-16.5c8.1,0,14.5,6.3,14.5,16.1C1131.7,263.8,1131.6,264.8,1131.4,265.8z
				 M1108.9,259.7h15.8c-0.3-4-3.2-7.2-7.6-7.2C1112.8,252.5,1109.9,255.6,1108.9,259.7z"/>
			<path class="st1" d="M1167.8,252.7l-5.8,3.5c-1.2-2.1-2.8-3.7-5.9-3.7c-4.3,0-9.3,4.3-9.3,13.8V279h-6.6v-32h6.6v6.6
				c2.1-4.5,5.9-7.2,10.3-7.2C1162.2,246.5,1165.9,248.9,1167.8,252.7z"/>
			<path class="st1" d="M1200,269.5c0,6-5.3,10.1-12.6,10.1c-8.5,0-12.5-3.9-13.8-5.2l3.3-4.8c1.9,1.9,4.5,3.9,10.1,4
				c5,0.1,6.4-2.2,6.4-3.7c0-1.7-0.8-3.2-5.9-4.1c-9.8-1.6-12.3-5.1-12.3-10.1c0-5,4-9.2,12.1-9.2c4.6,0,8.1,1.4,10.5,3.2l-3.1,4.8
				c-1.7-1-4-1.9-7.4-1.9c-4.1,0-5.5,1.4-5.5,2.9c0,1.7,1.2,3,6.7,3.7C1198.3,260.4,1200,265.4,1200,269.5z"/>
		</g>
	</g>
	<g>
		<g>
			<polygon class="st0" points="488.5,279.1 209.3,279.1 209.3,223.3 488.5,244.2 			"/>
			<polygon class="st0" points="488.5,209.2 209.3,167.5 209.3,111.7 488.5,174.2 			"/>
			<polygon class="st0" points="488.5,139.3 209.3,55.8 209.3,0 488.5,104.3 			"/>
		</g>
		<g>
			<polygon class="st1" points="209.3,279.1 0,279.1 0,244.2 209.3,223.3 			"/>
			<polygon class="st1" points="209.3,167.5 0,209.2 0,174.2 209.3,111.7 			"/>
			<polygon class="st1" points="209.3,55.8 0,139.3 0,104.3 209.3,0 			"/>
		</g>
	</g>
</g>
</svg>
