<svg width="156.6140625" height="156.6140625" viewBox="0 0 312.5 312.5" class="css-1j8o68f"><defs id="SvgjsDefs1719"></defs><g id="SvgjsG1720" featurekey="rootContainer" transform="matrix(3.125,0,0,3.125,0,0)" fill="#111111"><path xmlns="http://www.w3.org/2000/svg" d="M0 0h100v100H0z"></path></g><g id="SvgjsG1721" featurekey="symbolFeature-0" transform="matrix(0.8888840663841885,0,0,0.8888840663841885,111.5560136935021,75.39091364386044)" fill="#fcfcfc"><g xmlns="http://www.w3.org/2000/svg"><polygon points="5.337,94.815 69.752,94.815 69.752,77.767 5.337,80.381  "></polygon><path d="M5.337,43.426c0,4.915,0,9.809,0,14.702c17.875-10.413,39.324-13.764,64.415-9.965c0-5.765,0-11.529,0-17.293   C49.22,26.712,27.792,30.534,5.337,43.426z"></path><path d="M72.836,8.816c-0.402,27.951,0.849,58.047,0.447,85.998c7.239,0,14.478,0,21.717,0c0-22.902,0-45.804,0-68.705   C89.839,19.116,81.438,11.834,72.836,8.816z"></path><path d="M5.337,24.211c0.157,5.138-0.469,10.434-0.312,15.573c15.55-11.975,35.636-19.707,64.727-15.573c0-5.541,0-11.06,0-16.58   C50.828,2.337,30.094,4.683,5.337,24.211z"></path><path d="M5.337,61.323c0,5.139,0,10.278,0,15.393c20.913-5.429,42.251-6.322,64.415-5.429c0-5.028,0-12.289,0-17.316   C46.493,51.827,25.156,54.62,5.337,61.323z"></path></g></g><g id="SvgjsG1722" featurekey="nameFeature-0" transform="matrix(0.8599522221063857,0,0,0.8599522221063857,54.10810445527447,170.23094305211262)" fill="#fcfcfc"><path d="M18.04 40.64 c-6.72 0 -15.84 -3.92 -15.84 -14.16 c0 -6.92 4.28 -15.12 15.4 -15.12 c4.6 0 8.64 1.44 8.16 2.84 l-0.52 1.48 c-1.32 4.08 -3.04 -1.24 -10.04 -1.24 c-5.76 0 -8.72 3.72 -8.72 9.64 c0 8.96 6.8 12.88 12.48 12.88 c0.68 0 4.16 -0.56 6.44 -2 c0.32 -0.2 1.12 0.68 0.88 1.04 c-1.72 2.52 -7.04 4.64 -8.24 4.64 z M62.800000000000004 39.04 c0.32 0 0.24 1.04 0 1.12 c-2.4 0.88 -5.8 0.68 -8.12 -2.32 l-6.2 -7.96 c-1.68 -2.2 -3.84 -2.56 -6.68 -2.6 l0 7.8 c0 2.8 1.88 3.28 4.52 3.6 c0.28 0.04 0.08 1.32 -0.24 1.32 l-11.88 0 c-0.32 0 -0.56 -1.28 -0.24 -1.32 c2 -0.28 3.36 -1.04 3.36 -3.6 l0 -17.96 c0 -2.64 -1.44 -3.4 -3.36 -3.92 c-0.32 -0.08 -0.12 -1.32 0.24 -1.28 c1.56 0.2 3.36 0.24 4.6 0.24 c2.84 0 5.48 -0.24 7.36 -0.24 c5.92 0 10 2.44 10 7.4 c0 4.68 -3.84 6.96 -7.04 7.16 l0 0.2 c1.52 0 2.64 0.68 4.36 2.84 l6.04 7.56 c1.2 1.52 2.32 1.96 3.28 1.96 z M43 25.52 c6 0 8.44 -1.04 8.44 -5.16 c0 -4.28 -2.8 -6.44 -6.44 -6.44 c-2.36 0 -3.2 0.96 -3.2 3.2 l0 8.4 l1.2 0 z M68.88000000000001 40.08 c-0.4 0.04 -0.56 -1.28 -0.24 -1.36 c2.32 -0.6 4.16 -0.96 4.16 -3.92 l0 -17.84 c0 -2.6 -1.68 -3.32 -3.4 -3.72 c-0.32 -0.08 -0.12 -1.36 0.2 -1.32 c2.96 0.28 7.64 0.24 10.32 0.24 c3.64 0 6.32 -0.16 9.52 -0.24 c0.96 0 0.96 0.64 0.76 1.56 l-0.96 3.76 c-0.12 0.56 -1.12 0.56 -1.28 0 c-0.6 -1.92 -1.8 -3.12 -6.84 -3.12 c-2.92 0 -3.84 0.72 -3.84 2.88 l0 6.56 c0 1.04 0.52 1.24 1.32 1.24 l0.84 0 c3.36 0 6.12 -0.28 7.8 -1.84 c0.4 -0.36 1.28 -0.28 0.92 0.48 l-2.32 5.04 c-0.28 0.68 -0.88 0.6 -1.32 0.04 c-0.92 -1.28 -3 -1.8 -5.4 -1.8 l-0.52 0 c-0.8 0 -1.32 0.2 -1.32 1.24 l0 6.84 c0 2.28 1 3.08 4.4 3.08 c6.24 0 8.48 -2.68 9.44 -4.28 c0.32 -0.48 1.32 -0.28 1.32 0.4 c0 2.12 -1.68 6.08 -4.16 6.08 c-2.12 -0.12 -4.48 -0.24 -7.84 -0.24 c-3.72 0 -7.88 -0.12 -11.56 0.24 z M128.84 38.68 c0.56 0.08 0.4 1.32 -0.08 1.32 l-10.28 0 c-0.52 0 -0.56 -1.24 -0.12 -1.32 c1.52 -0.28 3.08 -0.84 1.6 -4.28 l-0.52 -1.2 c-0.4 -0.92 -1.16 -1 -2.4 -1 l-8.24 0 c-1.2 0 -1.96 0.08 -2.32 1 l-0.48 1.2 c-1.44 3.48 0.08 4 2.04 4.28 c0.48 0.08 0.4 1.32 -0.12 1.32 l-8.56 0 c-0.48 0 -0.6 -1.24 -0.12 -1.32 c1.64 -0.28 2.6 -0.88 4.12 -4.28 l6.76 -15.48 c1.56 -3.52 2.04 -5.2 2.04 -6.72 c0 -0.24 2.8 -0.88 2.92 -0.6 l9.76 22.76 c1.44 3.44 2.4 4.08 4 4.32 z M116.92 30.08 c0.56 0 1.2 -0.08 0.96 -0.64 l-4.88 -11.64 l-4.92 11.64 c-0.24 0.56 0.4 0.64 0.96 0.64 l7.88 0 z M141.68 40 c-0.36 0 -0.6 -1.24 -0.28 -1.28 c2.76 -0.32 4.6 -0.92 4.6 -3.08 l0 -19.84 c0 -1 -0.36 -1.32 -1.32 -1.32 l-1.16 0 c-3.92 0 -5.88 0.8 -6.72 2.6 c-0.36 0.76 -1.68 0.64 -1.52 0 c0.36 -1.48 0.68 -2.64 0.92 -4.72 c0.08 -0.76 0.52 -0.72 1.24 -0.64 c1.68 0.2 3.52 0.28 11 0.28 c7.52 0 10.32 -0.08 12.08 -0.28 c0.72 -0.08 1.4 -0.12 1.16 0.64 c-0.6 1.84 -1 3.24 -1.24 4.72 c-0.12 0.68 -1.16 0.68 -1.32 0 c-0.36 -1.76 -2.08 -2.6 -5.6 -2.6 l-1.32 0 c-0.96 0 -1.52 0.32 -1.52 1.32 l0 19.84 c0 2.16 1.84 2.76 4.56 3.08 c0.32 0.04 0.08 1.28 -0.28 1.28 l-13.28 0 z M183.4 40.64 c-8.32 0 -14.4 -6.2 -14.4 -14.48 c0 -8.08 5.72 -14.8 14.48 -14.8 c8.36 0 14.4 6.16 14.4 14.44 c0 8.12 -5.68 14.84 -14.48 14.84 z M184.92000000000002 38.04 c3.6 0 8.52 -2.32 8.52 -10.08 c0 -8.16 -5.6 -14 -11.48 -14 c-3.6 0 -8.44 2.32 -8.44 10 c0 8.24 5.56 14.08 11.4 14.08 z M234.56 39.04 c0.32 0 0.24 1.04 0 1.12 c-2.4 0.88 -5.8 0.68 -8.12 -2.32 l-6.2 -7.96 c-1.68 -2.2 -3.84 -2.56 -6.68 -2.6 l0 7.8 c0 2.8 1.88 3.28 4.52 3.6 c0.28 0.04 0.08 1.32 -0.24 1.32 l-11.88 0 c-0.32 0 -0.56 -1.28 -0.24 -1.32 c2 -0.28 3.36 -1.04 3.36 -3.6 l0 -17.96 c0 -2.64 -1.44 -3.4 -3.36 -3.92 c-0.32 -0.08 -0.12 -1.32 0.24 -1.28 c1.56 0.2 3.36 0.24 4.6 0.24 c2.84 0 5.48 -0.24 7.36 -0.24 c5.92 0 10 2.44 10 7.4 c0 4.68 -3.84 6.96 -7.04 7.16 l0 0.2 c1.52 0 2.64 0.68 4.36 2.84 l6.04 7.56 c1.2 1.52 2.32 1.96 3.28 1.96 z M214.76000000000002 25.52 c6 0 8.44 -1.04 8.44 -5.16 c0 -4.28 -2.8 -6.44 -6.44 -6.44 c-2.36 0 -3.2 0.96 -3.2 3.2 l0 8.4 l1.2 0 z"></path></g><g id="SvgjsG1723" featurekey="sloganFeature-0" transform="matrix(0.5617739992441647,0,0,0.5617739992441647,78.43822600075583,213.00016918967148)" fill="#fcfcfc"><path d="M1.26 20 c-0.16 0 -0.26 -0.12 -0.26 -0.26 l0 -11.98 c0 -0.14 0.1 -0.26 0.26 -0.26 l4.88 0 c1.52 0 2.72 0.38 3.56 1.16 c1.24 1.12 1.66 3.24 1.06 4.8 c-0.22 0.56 -0.6 1.08 -1.08 1.46 c-0.28 0.22 -0.58 0.38 -0.88 0.54 c0.86 1.36 2.16 4.12 2.16 4.12 c0.02 0.04 0.06 0.1 0.06 0.16 c0 0.14 -0.12 0.26 -0.26 0.26 l-2.96 0 c-0.08 0 -0.18 -0.06 -0.22 -0.14 l-1.74 -3.82 c-0.62 0.04 -1.1 0.02 -1.74 0.02 l0 3.68 c0 0.14 -0.12 0.26 -0.26 0.26 l-2.58 0 z M4.1 13.280000000000001 c0 0 2.52 0.28 3.4 -0.3 c0.34 -0.22 0.54 -0.76 0.54 -1.16 c-0.02 -0.44 -0.24 -0.9 -0.6 -1.18 c-0.38 -0.32 -1.32 -0.42 -1.8 -0.42 l-1.54 0.04 l0 3.02 z M19.196 20 c-0.08 0 -0.16 -0.04 -0.2 -0.12 c-0.06 -0.06 -0.06 -0.16 -0.04 -0.24 l4.66 -11.98 c0.04 -0.1 0.14 -0.16 0.24 -0.16 l2.68 0 c0.1 0 0.2 0.06 0.24 0.16 l4.58 11.98 c0.02 0.08 0.02 0.16 -0.04 0.24 c-0.04 0.08 -0.12 0.12 -0.2 0.12 l-2.78 0 c-0.1 0 -0.2 -0.06 -0.24 -0.16 l-0.74 -1.84 l-4.5 0.02 l-0.74 1.82 c-0.04 0.1 -0.14 0.16 -0.24 0.16 l-2.68 0 z M23.676000000000002 15.5 l2.88 0 l-1.44 -4.24 z M39.332 20 c-0.14 0 -0.26 -0.12 -0.26 -0.26 l0 -11.98 c0 -0.14 0.12 -0.26 0.26 -0.26 l2.6 0 c0.14 0 0.26 0.12 0.26 0.26 l0 11.98 c0 0.14 -0.12 0.26 -0.26 0.26 l-2.6 0 z M50.348 20 c-0.14 0 -0.26 -0.12 -0.26 -0.26 l0 -11.98 c0 -0.14 0.12 -0.26 0.26 -0.26 l2.6 0 c0.14 0 0.26 0.12 0.26 0.26 l0 9.36 l4.5 0 c0.14 0 0.26 0.12 0.26 0.26 l0 2.36 c0 0.14 -0.12 0.26 -0.26 0.26 l-7.36 0 z M66.12400000000001 20 c-0.14 0 -0.26 -0.12 -0.26 -0.26 l0 -11.98 c0 -0.14 0.12 -0.26 0.26 -0.26 l2.6 0 c0.14 0 0.26 0.12 0.26 0.26 l0 11.98 c0 0.14 -0.12 0.26 -0.26 0.26 l-2.6 0 z M77.14000000000001 20 c-0.14 0 -0.26 -0.12 -0.26 -0.26 l0 -11.98 c0 -0.14 0.12 -0.26 0.26 -0.26 l2.36 0 c0.08 0 0.16 0.04 0.22 0.1 l4.6 7.1 l0 -6.94 c0 -0.14 0.12 -0.26 0.26 -0.26 l2.46 0 c0.14 0 0.26 0.12 0.26 0.26 l0 11.98 c0 0.14 -0.12 0.26 -0.26 0.26 l-2.36 0 c-0.08 0 -0.16 -0.04 -0.22 -0.1 l-4.58 -7.06 l0 6.9 c0 0.14 -0.12 0.26 -0.26 0.26 l-2.48 0 z M101.57600000000001 20 c-1.18 0 -2.28 -0.28 -3.24 -0.84 c-0.98 -0.58 -1.74 -1.36 -2.3 -2.32 c-0.56 -0.98 -0.84 -2.1 -0.84 -3.3 s0.28 -2.3 0.86 -3.26 c0.56 -0.98 1.36 -1.76 2.34 -2.32 c1 -0.56 2.12 -0.84 3.34 -0.84 c0.88 0 1.74 0.16 2.6 0.5 c0.84 0.32 1.58 0.78 2.18 1.36 c0.1 0.08 0.12 0.22 0.04 0.34 l-1.46 1.92 c-0.06 0.06 -0.12 0.1 -0.2 0.12 c-0.06 0 -0.14 -0.04 -0.2 -0.08 c-0.4 -0.4 -0.86 -0.72 -1.4 -0.94 c-0.52 -0.22 -1.04 -0.34 -1.56 -0.34 c-0.62 0 -1.2 0.16 -1.7 0.46 c-0.52 0.32 -0.92 0.74 -1.22 1.28 s-0.44 1.14 -0.44 1.8 s0.14 1.28 0.44 1.82 s0.72 0.98 1.22 1.3 c0.52 0.3 1.1 0.46 1.7 0.46 c0.32 0 0.66 -0.06 1.04 -0.16 c0.32 -0.1 0.66 -0.24 0.96 -0.4 l0 -0.92 l-1.38 0 c-0.08 0 -0.14 -0.02 -0.18 -0.08 c-0.06 -0.04 -0.08 -0.1 -0.08 -0.18 l0.02 -2.24 c0 -0.14 0.12 -0.26 0.26 -0.26 l3.88 0 c0.14 0 0.26 0.12 0.26 0.26 l0 5.02 c0 0.08 -0.04 0.16 -0.12 0.22 c-0.62 0.48 -1.38 0.88 -2.26 1.16 c-0.88 0.3 -1.74 0.46 -2.56 0.46 z M126.04800000000002 20 c-0.14 0 -0.26 -0.12 -0.26 -0.26 l0 -11.98 c0 -0.14 0.12 -0.26 0.26 -0.26 l2.6 0 c0.14 0 0.26 0.12 0.26 0.26 l0 11.98 c0 0.14 -0.12 0.26 -0.26 0.26 l-2.6 0 z M137.064 20 c-0.14 0 -0.26 -0.12 -0.26 -0.26 l0 -11.98 c0 -0.14 0.12 -0.26 0.26 -0.26 l2.36 0 c0.08 0 0.16 0.04 0.22 0.1 l4.6 7.1 l0 -6.94 c0 -0.14 0.12 -0.26 0.26 -0.26 l2.46 0 c0.14 0 0.26 0.12 0.26 0.26 l0 11.98 c0 0.14 -0.12 0.26 -0.26 0.26 l-2.36 0 c-0.08 0 -0.16 -0.04 -0.22 -0.1 l-4.58 -7.06 l0 6.9 c0 0.14 -0.12 0.26 -0.26 0.26 l-2.48 0 z M160.46 20.12 c-0.96 0 -1.92 -0.18 -2.84 -0.54 c-0.92 -0.34 -1.74 -0.84 -2.42 -1.44 c-0.08 -0.08 -0.1 -0.2 -0.06 -0.3 l0.7 -2.38 c0.04 -0.08 0.1 -0.14 0.18 -0.14 c0.08 -0.02 0.16 0 0.22 0.06 c1.06 1 2.26 1.9 3.76 1.98 c0.4 0.02 0.84 0.04 1.22 -0.08 c1.18 -0.38 0.68 -1.58 -0.2 -1.94 c-0.3 -0.12 -0.72 -0.26 -1.26 -0.42 c-0.8 -0.22 -1.46 -0.46 -1.96 -0.7 c-0.54 -0.24 -1 -0.62 -1.4 -1.12 c-0.38 -0.52 -0.58 -1.2 -0.58 -2.02 c0 -0.78 0.2 -1.46 0.6 -2.04 s0.96 -1.04 1.66 -1.34 s1.52 -0.46 2.44 -0.46 c0.82 0 1.62 0.12 2.42 0.38 c0.78 0.24 1.48 0.58 2.1 0.98 c0.1 0.08 0.14 0.2 0.08 0.32 l-0.66 2.24 c-0.02 0.08 -0.08 0.12 -0.16 0.14 c-0.06 0.02 -0.14 0.02 -0.2 -0.02 c-0.9 -0.56 -1.8 -1.24 -2.86 -1.38 c-0.7 -0.1 -1.76 -0.06 -2 0.78 c-0.3 1.08 1.28 1.36 2 1.58 c0.8 0.24 1.46 0.48 1.98 0.72 c0.54 0.26 1.02 0.66 1.4 1.16 c0.4 0.52 0.6 1.22 0.6 2.06 c0 0.82 -0.22 1.52 -0.64 2.12 c-0.4 0.6 -0.98 1.04 -1.7 1.36 c-0.72 0.28 -1.52 0.44 -2.42 0.44 z M176.35600000000002 20 c-0.14 0 -0.24 -0.12 -0.24 -0.26 l0 -9.44 l-2.74 0 c-0.14 0 -0.26 -0.1 -0.26 -0.24 l0 -2.3 c0 -0.14 0.12 -0.26 0.26 -0.26 l8.58 0 c0.16 0 0.26 0.12 0.26 0.26 l0 2.3 c0 0.14 -0.1 0.24 -0.26 0.24 l-2.74 0 l0 9.44 c0 0.14 -0.12 0.26 -0.26 0.26 l-2.6 0 z M189.17200000000003 20 c-0.08 0 -0.16 -0.04 -0.2 -0.12 c-0.06 -0.06 -0.06 -0.16 -0.04 -0.24 l4.66 -11.98 c0.04 -0.1 0.14 -0.16 0.24 -0.16 l2.68 0 c0.1 0 0.2 0.06 0.24 0.16 l4.58 11.98 c0.02 0.08 0.02 0.16 -0.04 0.24 c-0.04 0.08 -0.12 0.12 -0.2 0.12 l-2.78 0 c-0.1 0 -0.2 -0.06 -0.24 -0.16 l-0.74 -1.84 l-4.5 0.02 l-0.74 1.82 c-0.04 0.1 -0.14 0.16 -0.24 0.16 l-2.68 0 z M193.65200000000004 15.5 l2.88 0 l-1.44 -4.24 z M209.30800000000002 20 c-0.14 0 -0.26 -0.12 -0.26 -0.26 l0 -11.98 c0 -0.14 0.12 -0.26 0.26 -0.26 l2.6 0 c0.14 0 0.26 0.12 0.26 0.26 l0 9.36 l4.5 0 c0.14 0 0.26 0.12 0.26 0.26 l0 2.36 c0 0.14 -0.12 0.26 -0.26 0.26 l-7.36 0 z M225.08400000000003 20 c-0.14 0 -0.26 -0.12 -0.26 -0.26 l0 -11.98 c0 -0.14 0.12 -0.26 0.26 -0.26 l2.6 0 c0.14 0 0.26 0.12 0.26 0.26 l0 9.36 l4.5 0 c0.14 0 0.26 0.12 0.26 0.26 l0 2.36 c0 0.14 -0.12 0.26 -0.26 0.26 l-7.36 0 z M240.60000000000005 20 l0 -11.98 c0 -0.5 0.1 -0.6 0.26 -0.6 l8.76 0 c0.14 0 0.26 0.1 0.26 0.24 l0 2.26 c0 0.14 -0.12 0.26 -0.26 0.26 l-5.92 0 l0 2.08 l3.74 0 c0.14 0 0.26 0.12 0.26 0.26 l0 2.24 c0 0.14 -0.12 0.26 -0.26 0.26 l-3.74 0 l0 2.14 l5.9 0 c0.14 0 0.26 0.12 0.26 0.26 l0 2.24 c0 0.14 -0.12 0.26 -0.26 0.26 l-8.74 0 c-0.16 0 -0.26 -0.12 -0.26 0.08 z M258.03600000000006 20 c-0.16 0 -0.26 -0.12 -0.26 -0.26 l0 -11.98 c0 -0.14 0.1 -0.26 0.26 -0.26 l4.88 0 c1.52 0 2.72 0.38 3.56 1.16 c1.24 1.12 1.66 3.24 1.06 4.8 c-0.22 0.56 -0.6 1.08 -1.08 1.46 c-0.28 0.22 -0.58 0.38 -0.88 0.54 c0.86 1.36 2.16 4.12 2.16 4.12 c0.02 0.04 0.06 0.1 0.06 0.16 c0 0.14 -0.12 0.26 -0.26 0.26 l-2.96 0 c-0.08 0 -0.18 -0.06 -0.22 -0.14 l-1.74 -3.82 c-0.62 0.04 -1.1 0.02 -1.74 0.02 l0 3.68 c0 0.14 -0.12 0.26 -0.26 0.26 l-2.58 0 z M260.8760000000001 13.280000000000001 c0 0 2.52 0.28 3.4 -0.3 c0.34 -0.22 0.54 -0.76 0.54 -1.16 c-0.02 -0.44 -0.24 -0.9 -0.6 -1.18 c-0.38 -0.32 -1.32 -0.42 -1.8 -0.42 l-1.54 0.04 l0 3.02 z M281.052 20.12 c-0.96 0 -1.92 -0.18 -2.84 -0.54 c-0.92 -0.34 -1.74 -0.84 -2.42 -1.44 c-0.08 -0.08 -0.1 -0.2 -0.06 -0.3 l0.7 -2.38 c0.04 -0.08 0.1 -0.14 0.18 -0.14 c0.08 -0.02 0.16 0 0.22 0.06 c1.06 1 2.26 1.9 3.76 1.98 c0.4 0.02 0.84 0.04 1.22 -0.08 c1.18 -0.38 0.68 -1.58 -0.2 -1.94 c-0.3 -0.12 -0.72 -0.26 -1.26 -0.42 c-0.8 -0.22 -1.46 -0.46 -1.96 -0.7 c-0.54 -0.24 -1 -0.62 -1.4 -1.12 c-0.38 -0.52 -0.58 -1.2 -0.58 -2.02 c0 -0.78 0.2 -1.46 0.6 -2.04 s0.96 -1.04 1.66 -1.34 s1.52 -0.46 2.44 -0.46 c0.82 0 1.62 0.12 2.42 0.38 c0.78 0.24 1.48 0.58 2.1 0.98 c0.1 0.08 0.14 0.2 0.08 0.32 l-0.66 2.24 c-0.02 0.08 -0.08 0.12 -0.16 0.14 c-0.06 0.02 -0.14 0.02 -0.2 -0.02 c-0.9 -0.56 -1.8 -1.24 -2.86 -1.38 c-0.7 -0.1 -1.76 -0.06 -2 0.78 c-0.3 1.08 1.28 1.36 2 1.58 c0.8 0.24 1.46 0.48 1.98 0.72 c0.54 0.26 1.02 0.66 1.4 1.16 c0.4 0.52 0.6 1.22 0.6 2.06 c0 0.82 -0.22 1.52 -0.64 2.12 c-0.4 0.6 -0.98 1.04 -1.7 1.36 c-0.72 0.28 -1.52 0.44 -2.42 0.44 z"></path></g></svg>