<svg xmlns="http://www.w3.org/2000/svg" xmlns:xlink="http://www.w3.org/1999/xlink" id="Layer_1" x="0px" y="0px" viewBox="0 0 314.7 100" style="enable-background:new 0 0 314.7 100;" xml:space="preserve">
<style type="text/css">
	.st0{fill:none;}
	.st1{fill:#FFFFFF;}
	.st2{fill:#FCBA2D;}
</style>
<path class="st0" d="M239.1,45.9c-2.3,0-4.3,0.8-5.9,2.5c-1.6,1.6-2.4,3.7-2.4,6c0,2.4,0.8,4.4,2.4,6c1.6,1.6,3.6,2.5,5.9,2.5  c2.3,0,4.3-0.8,5.9-2.5c1.6-1.6,2.4-3.7,2.4-6c0-2.4-0.8-4.4-2.4-6C243.5,46.8,241.5,45.9,239.1,45.9z"></path>
<path class="st0" d="M109.5,46.1h-4.9v7.4h4.9c1,0,2-0.4,2.7-1.1c0.7-0.7,1.1-1.6,1.1-2.6c0-1-0.4-1.9-1.1-2.6  C111.4,46.5,110.5,46.1,109.5,46.1z"></path>
<rect x="89.5" y="41.9" class="st1" width="4.7" height="25.3"></rect>
<g>
	<path class="st0" d="M139.1,45.9c-2.3,0-4.3,0.8-5.9,2.5c-1.6,1.6-2.4,3.7-2.4,6c0,2.4,0.8,4.4,2.4,6c1.6,1.6,3.6,2.5,5.9,2.5   c2.3,0,4.3-0.8,5.9-2.5c1.6-1.6,2.4-3.7,2.4-6c0-2.4-0.8-4.4-2.4-6C143.4,46.8,141.4,45.9,139.1,45.9z"></path>
	<path class="st1" d="M150.3,47.9L150.3,47.9c-1.2-2-2.8-3.6-4.7-4.7c-2-1.2-4.2-1.7-6.5-1.7c-1.8,0-3.5,0.3-5.1,1   c-1.6,0.7-3,1.6-4.1,2.8c-1.2,1.2-2.1,2.5-2.8,4.2c-0.7,1.6-1,3.3-1,5.1c0,1.8,0.3,3.5,1,5.1c0.7,1.6,1.6,3,2.8,4.1   c1.2,1.2,2.6,2.1,4.1,2.8c1.6,0.7,3.3,1,5.1,1c2.3,0,4.5-0.6,6.5-1.7c2-1.2,3.6-2.7,4.7-4.7c1.2-2,1.7-4.2,1.7-6.5   C152.1,52.1,151.5,49.9,150.3,47.9z M145,60.5c-1.6,1.6-3.6,2.5-5.9,2.5c-2.3,0-4.3-0.8-5.9-2.5c-1.6-1.6-2.4-3.7-2.4-6   c0-2.4,0.8-4.4,2.4-6c1.6-1.6,3.6-2.5,5.9-2.5c2.3,0,4.3,0.8,5.9,2.5c1.6,1.6,2.4,3.7,2.4,6C147.4,56.8,146.6,58.9,145,60.5z"></path>
</g>
<g>
	<path class="st0" d="M109.5,46.1h-4.9v7.4h4.9c1,0,2-0.4,2.7-1.1c0.7-0.7,1.1-1.6,1.1-2.6c0-1-0.4-1.9-1.1-2.6   C111.4,46.5,110.5,46.1,109.5,46.1z"></path>
	<path class="st1" d="M127.6,66c-0.8-0.8-1.6-1.8-2.2-2.8c-0.6,0-1,0-1.1,0c-0.4,0-1-0.1-1.7-0.2c-0.7-0.1-1.4-0.3-2-0.5   c-0.6-0.2-1.3-0.6-2.1-1c-0.7-0.5-1.4-1-2.1-1.7l-2.7-2.8l0.5-0.3c1.1-0.7,2-1.6,2.6-2.7c0.7-1.2,1.1-2.6,1.1-4.1   c0-1.5-0.4-2.8-1.1-4.1c-0.7-1.2-1.7-2.2-2.9-2.9c-1.2-0.7-2.6-1-4-1h-10v25.3h4.7v-9.3h3.5l4.9,5.1c1,1,2,1.8,3,2.5   c1,0.6,2.1,1.1,3.2,1.4c1.1,0.3,2.2,0.5,3.1,0.6c0.4,0,2.8,0.1,7.1,0.1C128.7,67,128.1,66.5,127.6,66z M112.2,52.4   c-0.7,0.7-1.7,1.1-2.7,1.1h-4.9v-7.4h4.9c1,0,2,0.4,2.7,1.1c0.8,0.7,1.1,1.6,1.1,2.6C113.3,50.8,112.9,51.7,112.2,52.4z"></path>
</g>
<polygon class="st1" points="178.6,58 155.7,41.3 155.7,67.1 160.4,67.1 160.4,51 183.3,67.7 183.3,41.9 178.6,41.9 "></polygon>
<path class="st1" d="M201.9,55.1L201.9,55.1c-0.6-0.6-1.2-1.1-1.9-1.6c-0.7-0.5-1.4-0.9-2.1-1.3c-0.7-0.4-1.4-0.7-2-1.1  c-0.6-0.4-1.1-0.8-1.5-1.2c-0.4-0.5-0.6-1-0.6-1.5c0-0.6,0.2-1.2,0.7-1.7c0.6-0.6,1.7-1.1,3.9-0.3c0.7,0.3,1.4,0.7,2,1.2l2.7-3.5  c-1.7-1.7-4-2.6-6.8-2.6c-1.3,0-2.5,0.3-3.6,0.9c-1.1,0.6-2,1.4-2.7,2.5c-0.7,1.1-1.1,2.4-1.1,3.8c0,1,0.2,2,0.5,2.8  c0.4,0.8,0.8,1.6,1.4,2.1c0.6,0.6,1.2,1.1,1.9,1.6c0.7,0.5,1.4,0.9,2.1,1.3c0.7,0.4,1.4,0.8,2,1.1c0.6,0.4,1.1,0.8,1.5,1.3  c0.4,0.5,0.6,1.1,0.6,1.7c0,0.7-0.3,1.4-0.8,1.8c-0.5,0.5-1.3,0.7-2.2,0.7c-1.7,0-3.4-0.7-5.2-2l-2.6,3.4c0.7,0.8,1.8,1.5,3.1,2.1  c1.4,0.6,2.8,0.9,4.3,0.9c2.5,0,4.5-0.7,6-2c1.5-1.4,2.3-3.1,2.3-5.3c0-1-0.2-2-0.5-2.9C203,56.4,202.5,55.7,201.9,55.1z"></path>
<polygon class="st1" points="207.4,46.1 213.4,46.1 213.4,67.1 218.1,67.1 218.1,46.1 224.1,46.1 224.1,41.9 207.4,41.9 "></polygon>
<path class="st1" d="M245.7,43.2c-2-1.2-4.2-1.7-6.5-1.7c-1.8,0-3.5,0.3-5.1,1c-1.6,0.7-3,1.6-4.1,2.8c-1.2,1.2-2.1,2.5-2.8,4.2  c-0.7,1.6-1,3.3-1,5.1c0,1.8,0.3,3.5,1,5.1c0.7,1.6,1.6,3,2.8,4.1c1.2,1.2,2.6,2.1,4.1,2.8c1.6,0.7,3.3,1,5.1,1  c2.3,0,4.5-0.6,6.5-1.7c2-1.2,3.6-2.7,4.7-4.7c1.2-2,1.7-4.2,1.7-6.5c0-2.3-0.6-4.5-1.7-6.5C249.3,46,247.7,44.4,245.7,43.2z   M245.1,60.5c-1.6,1.6-3.6,2.5-5.9,2.5c-2.3,0-4.3-0.8-5.9-2.5c-1.6-1.6-2.4-3.7-2.4-6c0-2.4,0.8-4.4,2.4-6c1.6-1.6,3.6-2.5,5.9-2.5  c2.3,0,4.3,0.8,5.9,2.5c1.6,1.6,2.4,3.7,2.4,6C247.5,56.8,246.7,58.9,245.1,60.5z"></path>
<polygon class="st1" points="279.6,58 256.7,41.3 256.7,67.1 261.3,67.1 261.3,51 284.3,67.7 284.3,41.9 279.6,41.9 "></polygon>
<polygon class="st1" points="306.2,46.1 306.2,41.9 290.8,41.9 290.8,67.1 306.2,67.1 306.2,62.8 295.5,62.8 295.5,56.2 303.6,56.2   303.6,52 295.5,52 295.5,46.1 "></polygon>
<g>
	<path class="st2" d="M27.5,28.6c-2.1-0.2-2.8,0.5-2.8,1.7c-1,5,5.9,25,5.4,27.2c-1.2,6.1,9.5,1,14.8,1.7c7.5,1,0.4-6.8-1.5-19.9   c5.7-1.7,12.7-3.3,20.6-3.6c6.1-0.2-1.8-6,0.5-14.1C65.8,17.5,30.3,28.9,27.5,28.6"></path>
	<path class="st2" d="M53.5,41.1c-7.6-0.6-0.5,7.8,1.4,21.3c-6,1.2-13.1,2.3-20.8,2c-6-0.2,1.9,7.4-0.5,15.5   c-1.2,4.2,34.2-7.2,37.1-6.9c3.3,0.3,3.5-1.4,2.8-3.5c-0.4-7-6.5-24.4-6.1-26.4C68.7,37,56.3,41.3,53.5,41.1"></path>
	<path class="st2" d="M11.2,48.4c-9.5-0.8,1.3,14.2,1.9,34.2c0.2,5.4,5.8,0.7,15.7-0.5c4.8-0.6-3.4-14.4-5.3-33.5   C22.9,42.6,14,48.7,11.2,48.4"></path>
	<path class="st2" d="M9.2,32.2c-6.7-0.7-3.9,6.1-3.6,8.7c1.2,9.8,0.7,1.5,14,2.1c6,0.3-0.1-5.6,1.2-11   C21.7,27.7,12.1,32.5,9.2,32.2"></path>
</g>
<path class="st2" d="M233.8,82c-0.3-0.7-0.5-1.5-0.5-2.4c0-0.8,0.2-1.6,0.5-2.4c0.3-0.7,0.7-1.4,1.3-1.9s1.2-1,1.9-1.3  s1.5-0.5,2.4-0.5c0.8,0,1.5,0.1,2.3,0.4s1.5,0.8,2.1,1.4l-1.7,1.5c-0.7-0.8-1.6-1.2-2.7-1.2c-1.1,0-1.9,0.4-2.7,1.1  c-0.7,0.7-1.1,1.7-1.1,2.7c0,1.1,0.4,2,1.1,2.7c0.7,0.7,1.6,1.1,2.7,1.1c1.1,0,2-0.4,2.7-1.2l1.7,1.5c-0.6,0.7-1.3,1.1-2.1,1.4  c-0.8,0.3-1.5,0.4-2.3,0.4c-0.8,0-1.6-0.2-2.4-0.5s-1.4-0.8-1.9-1.3S234.1,82.8,233.8,82z"></path>
<path class="st2" d="M245,82c-0.3-0.7-0.5-1.5-0.5-2.4c0-0.8,0.2-1.6,0.5-2.4c0.3-0.7,0.7-1.4,1.3-1.9s1.2-1,1.9-1.3  s1.5-0.5,2.4-0.5c1.1,0,2.1,0.3,3,0.8c0.9,0.5,1.7,1.3,2.2,2.2c0.5,0.9,0.8,1.9,0.8,3s-0.3,2.1-0.8,3c-0.5,0.9-1.3,1.7-2.2,2.2  c-0.9,0.5-1.9,0.8-3,0.8c-0.8,0-1.6-0.2-2.4-0.5s-1.4-0.8-1.9-1.3S245.3,82.8,245,82z M247.9,76.9c-0.7,0.7-1.1,1.7-1.1,2.7  c0,1.1,0.4,2,1.1,2.7c0.7,0.7,1.6,1.1,2.7,1.1s1.9-0.4,2.7-1.1c0.7-0.7,1.1-1.6,1.1-2.7c0-1.1-0.4-2-1.1-2.7  c-0.7-0.7-1.6-1.1-2.7-1.1S248.6,76.2,247.9,76.9z"></path>
<path class="st2" d="M259,85.5V73.4l10.5,7.7v-7.3h2.3v12.1l-10.5-7.7v7.3H259z"></path>
<path class="st2" d="M274.4,85.5V73.8h2.3c1.1,0,2.1,0.3,3,0.8c0.9,0.5,1.7,1.2,2.2,2.1c0.5,0.9,0.8,1.9,0.8,3s-0.3,2.1-0.8,3  c-0.5,0.9-1.3,1.6-2.2,2.1c-0.9,0.5-1.9,0.8-3,0.8H274.4z M276.7,83.4c1.1,0,2-0.4,2.7-1.1c0.7-0.7,1.1-1.6,1.1-2.7  c0-1.1-0.4-2-1.1-2.7c-0.7-0.7-1.6-1.1-2.7-1.1V83.4z"></path>
<path class="st2" d="M285.1,82c-0.3-0.7-0.5-1.5-0.5-2.4c0-0.8,0.2-1.6,0.5-2.4c0.3-0.7,0.7-1.4,1.3-1.9s1.2-1,1.9-1.3  s1.5-0.5,2.4-0.5c1.1,0,2.1,0.3,3,0.8c0.9,0.5,1.7,1.3,2.2,2.2c0.5,0.9,0.8,1.9,0.8,3s-0.3,2.1-0.8,3c-0.5,0.9-1.3,1.7-2.2,2.2  c-0.9,0.5-1.9,0.8-3,0.8c-0.8,0-1.6-0.2-2.4-0.5s-1.4-0.8-1.9-1.3S285.5,82.8,285.1,82z M288.1,76.9c-0.7,0.7-1.1,1.7-1.1,2.7  c0,1.1,0.4,2,1.1,2.7c0.7,0.7,1.6,1.1,2.7,1.1s1.9-0.4,2.7-1.1c0.7-0.7,1.1-1.6,1.1-2.7c0-1.1-0.4-2-1.1-2.7  c-0.7-0.7-1.6-1.1-2.7-1.1S288.8,76.2,288.1,76.9z"></path>
<path class="st2" d="M298.3,84.2l1.3-1.7c0.8,0.7,1.6,1,2.4,1c0.4,0,0.7-0.1,1-0.3c0.2-0.2,0.3-0.5,0.3-0.8c0-0.3-0.1-0.5-0.3-0.7  c-0.2-0.2-0.4-0.4-0.7-0.6c-0.3-0.2-0.6-0.3-0.9-0.5c-0.3-0.2-0.7-0.4-1-0.6s-0.6-0.5-0.9-0.7c-0.3-0.3-0.5-0.6-0.7-1  c-0.2-0.4-0.3-0.8-0.3-1.3c0-0.7,0.2-1.3,0.5-1.8c0.3-0.5,0.8-0.9,1.3-1.2c0.5-0.3,1.1-0.4,1.7-0.4c1.3,0,2.4,0.4,3.3,1.3l-1.4,1.8  c-0.3-0.3-0.6-0.5-1-0.6c-0.3-0.1-0.6-0.2-0.9-0.2c-0.3,0-0.6,0.1-0.8,0.3c-0.2,0.2-0.3,0.4-0.3,0.7c0,0.2,0.1,0.4,0.3,0.6  c0.2,0.2,0.4,0.4,0.7,0.5c0.3,0.2,0.6,0.3,0.9,0.5c0.3,0.2,0.7,0.4,1,0.6s0.6,0.5,0.9,0.7c0.3,0.3,0.5,0.6,0.7,1  c0.2,0.4,0.3,0.9,0.3,1.4c0,1-0.4,1.9-1.1,2.5c-0.7,0.6-1.7,1-2.8,1c-0.7,0-1.3-0.1-2-0.4C299.1,85,298.6,84.6,298.3,84.2z"></path>
</svg>